PathFileType	4	(X/Y/Z)	C:\Users\italobelli\Desktop\GitHub\PTbot_officialCBL\Personal_Results\FLX22_noisy2.trc
DataRate	CameraRate	NumFrames	NumMarkers	Units	OrigDataRate	OrigDataStartFrame	OrigNumFrames
106.125000	106.125000	25	9	m	106.125000	532	850
Frame#	Time		gu		centelbow		EpL		centpxt8		centijc7		ij		ts		aa		ai
			X1	Y1	Z1	X2	Y2	Z2	X3	Y3	Z3	X4	Y4	Z4	X5	Y5	Z5	X6	Y6	Z6	X7	Y7	Z7	X8	Y8	Z8	X9	Y9	Z9

532	5.0035	-0.093463	0.063934	0.11042	0.084505	0.19593	0.22395	0.065192	0.22106	0.21796	-0.046816	-0.15316	-0.008669	-0.046816	0.031938	-0.008669	0	0	0	-0.15414	-0.010792	0.053196	-0.12316	0.082926	0.12014	-0.12732	-0.076388	0.14185
533	5.013	-0.09312	0.063967	0.11068	0.085724	0.19364	0.2245	0.066637	0.21902	0.21871	-0.046816	-0.15316	-0.008669	-0.046816	0.031938	-0.008669	0	0	0	-0.15423	-0.010502	0.053181	-0.12283	0.082861	0.12042	-0.1275	-0.076541	0.14147
534	5.0224	-0.092761	0.063988	0.11096	0.086934	0.1912	0.22509	0.06809	0.21683	0.21951	-0.046816	-0.15316	-0.008669	-0.046816	0.031938	-0.008669	0	0	0	-0.15431	-0.010198	0.05315	-0.1225	0.082783	0.12071	-0.12768	-0.0767	0.14106
535	5.0318	-0.092384	0.063997	0.11126	0.088134	0.18861	0.22571	0.069547	0.21449	0.22037	-0.046816	-0.15316	-0.008669	-0.046816	0.031938	-0.008669	0	0	0	-0.15438	-0.0098789	0.053104	-0.12216	0.082691	0.12101	-0.12786	-0.076866	0.14061
536	5.0412	-0.091993	0.063995	0.11156	0.089321	0.18589	0.22638	0.071008	0.21201	0.22126	-0.046816	-0.15316	-0.008669	-0.046816	0.031938	-0.008669	0	0	0	-0.15445	-0.0095459	0.053044	-0.12181	0.082587	0.12131	-0.12803	-0.077037	0.14013
537	5.0506	-0.091587	0.063981	0.11188	0.090494	0.18304	0.22708	0.07247	0.2094	0.22221	-0.046816	-0.15316	-0.008669	-0.046816	0.031938	-0.008669	0	0	0	-0.15451	-0.0091993	0.052969	-0.12146	0.08247	0.12162	-0.12821	-0.077214	0.13962
538	5.0601	-0.091168	0.063956	0.11221	0.091653	0.18006	0.22781	0.073932	0.20665	0.22319	-0.046816	-0.15316	-0.008669	-0.046816	0.031938	-0.008669	0	0	0	-0.15456	-0.0088396	0.052881	-0.12111	0.082341	0.12193	-0.12838	-0.077396	0.13908
539	5.0695	-0.090735	0.063919	0.11255	0.092796	0.17696	0.22858	0.075391	0.20377	0.22421	-0.046816	-0.15316	-0.008669	-0.046816	0.031938	-0.008669	0	0	0	-0.15462	-0.0084673	0.05278	-0.12075	0.082199	0.12225	-0.12854	-0.077582	0.1385
540	5.0789	-0.090292	0.063872	0.1129	0.093923	0.17374	0.22938	0.076847	0.20078	0.22527	-0.046816	-0.15316	-0.008669	-0.046816	0.031938	-0.008669	0	0	0	-0.15466	-0.008083	0.052667	-0.12038	0.082046	0.12258	-0.12871	-0.077773	0.1379
541	5.0883	-0.089837	0.063814	0.11327	0.09503	0.17041	0.2302	0.078297	0.19766	0.22637	-0.046816	-0.15316	-0.008669	-0.046816	0.031938	-0.008669	0	0	0	-0.1547	-0.0076872	0.052541	-0.12002	0.081882	0.12292	-0.12887	-0.077967	0.13726
542	5.0978	-0.089372	0.063745	0.11364	0.096118	0.16696	0.23105	0.079739	0.19443	0.22749	-0.046816	-0.15316	-0.008669	-0.046816	0.031938	-0.008669	0	0	0	-0.15474	-0.0072804	0.052405	-0.11964	0.081706	0.12325	-0.12903	-0.078166	0.13661
543	5.1072	-0.088898	0.063666	0.11402	0.097186	0.16341	0.23193	0.081171	0.19109	0.22865	-0.046816	-0.15316	-0.008669	-0.046816	0.031938	-0.008669	0	0	0	-0.15477	-0.006863	0.052257	-0.11927	0.081519	0.1236	-0.12918	-0.078367	0.13592
544	5.1166	-0.088417	0.063577	0.11441	0.098231	0.15977	0.23282	0.082593	0.18765	0.22983	-0.046816	-0.15316	-0.008669	-0.046816	0.031938	-0.008669	0	0	0	-0.15479	-0.0064357	0.052099	-0.1189	0.081321	0.12395	-0.12934	-0.078572	0.13521
545	5.126	-0.087928	0.063478	0.11481	0.099253	0.15603	0.23374	0.084001	0.1841	0.23104	-0.046816	-0.15316	-0.008669	-0.046816	0.031938	-0.008669	0	0	0	-0.15481	-0.0059989	0.051931	-0.11852	0.081113	0.1243	-0.12949	-0.078779	0.13447
546	5.1355	-0.087432	0.063369	0.11522	0.10025	0.15219	0.23467	0.085394	0.18046	0.23227	-0.046816	-0.15316	-0.008669	-0.046816	0.031938	-0.008669	0	0	0	-0.15483	-0.005553	0.051755	-0.11814	0.080895	0.12466	-0.12965	-0.078988	0.13371
547	5.1449	-0.086931	0.06325	0.11564	0.10122	0.14828	0.23563	0.08677	0.17673	0.23352	-0.046816	-0.15316	-0.008669	-0.046816	0.031938	-0.008669	0	0	0	-0.15484	-0.0050988	0.051569	-0.11776	0.080667	0.12502	-0.1298	-0.079199	0.13293
548	5.1543	-0.086426	0.063122	0.11606	0.10217	0.14428	0.23659	0.088128	0.17292	0.23479	-0.046816	-0.15316	-0.008669	-0.046816	0.031938	-0.008669	0	0	0	-0.15485	-0.0046366	0.051375	-0.11738	0.08043	0.12539	-0.12995	-0.079412	0.13213
549	5.1637	-0.085917	0.062985	0.11649	0.10308	0.14021	0.23757	0.089465	0.16902	0.23608	-0.046816	-0.15316	-0.008669	-0.046816	0.031938	-0.008669	0	0	0	-0.15485	-0.0041669	0.051174	-0.117	0.080183	0.12576	-0.13009	-0.079625	0.13131
550	5.1731	-0.085405	0.062838	0.11693	0.10397	0.13606	0.23856	0.09078	0.16505	0.23737	-0.046816	-0.15316	-0.008669	-0.046816	0.031938	-0.008669	0	0	0	-0.15484	-0.0036903	0.050965	-0.11662	0.079927	0.12613	-0.13024	-0.07984	0.13047
551	5.1826	-0.084892	0.062683	0.11737	0.10483	0.13185	0.23956	0.09207	0.16101	0.23868	-0.046816	-0.15316	-0.008669	-0.046816	0.031938	-0.008669	0	0	0	-0.15483	-0.0032073	0.05075	-0.11624	0.079663	0.12651	-0.13039	-0.080054	0.12961
552	5.192	-0.084378	0.062519	0.11782	0.10565	0.12758	0.24056	0.093335	0.15689	0.24	-0.046816	-0.15316	-0.008669	-0.046816	0.031938	-0.008669	0	0	0	-0.15482	-0.0027184	0.050529	-0.11586	0.07939	0.12689	-0.13053	-0.080269	0.12874
553	5.2014	-0.083863	0.062347	0.11827	0.10644	0.12325	0.24157	0.094572	0.15272	0.24133	-0.046816	-0.15316	-0.008669	-0.046816	0.031938	-0.008669	0	0	0	-0.1548	-0.0022241	0.050303	-0.11548	0.079108	0.12727	-0.13068	-0.080484	0.12785
554	5.2108	-0.08335	0.062166	0.11873	0.1072	0.11887	0.24258	0.09578	0.14849	0.24266	-0.046816	-0.15316	-0.008669	-0.046816	0.031938	-0.008669	0	0	0	-0.15478	-0.0017249	0.050071	-0.1151	0.078819	0.12766	-0.13082	-0.080698	0.12694
555	5.2203	-0.082838	0.061977	0.11919	0.10792	0.11444	0.24359	0.096956	0.1442	0.24399	-0.046816	-0.15316	-0.008669	-0.046816	0.031938	-0.008669	0	0	0	-0.15476	-0.0012213	0.049835	-0.11473	0.078522	0.12804	-0.13097	-0.08091	0.12602
556	5.2297	-0.082329	0.06178	0.11966	0.1086	0.10997	0.24461	0.098099	0.13987	0.24532	-0.046816	-0.15316	-0.008669	-0.046816	0.031938	-0.008669	0	0	0	-0.15473	-0.0007139	0.049595	-0.11436	0.078218	0.12843	-0.13111	-0.081122	0.12509
